<svg width="124" height="33" viewBox="0 0 124 33" fill="none" xmlns="http://www.w3.org/2000/svg">
<g clip-path="url(#clip0_1_2)">
<path d="M58.0028 7.84375H61.1648V19.2472C61.1648 20.4972 60.8693 21.5966 60.2784 22.5455C59.6932 23.4943 58.8693 24.2358 57.8068 24.7699C56.7443 25.2983 55.5028 25.5625 54.0824 25.5625C52.6562 25.5625 51.4119 25.2983 50.3494 24.7699C49.2869 24.2358 48.4631 23.4943 47.8778 22.5455C47.2926 21.5966 47 20.4972 47 19.2472V7.84375H50.1619V18.983C50.1619 19.7102 50.321 20.358 50.6392 20.9261C50.9631 21.4943 51.4176 21.9403 52.0028 22.2642C52.5881 22.5824 53.2812 22.7415 54.0824 22.7415C54.8835 22.7415 55.5767 22.5824 56.1619 22.2642C56.7528 21.9403 57.2074 21.4943 57.5256 20.9261C57.8437 20.358 58.0028 19.7102 58.0028 18.983V7.84375ZM67.0704 17.6278V25.2983H63.9852V12.2074H66.9341V14.4318H67.0875C67.3886 13.6989 67.8687 13.1165 68.5278 12.6847C69.1926 12.2528 70.0136 12.0369 70.9909 12.0369C71.8943 12.0369 72.6812 12.2301 73.3517 12.6165C74.0278 13.0028 74.5505 13.5625 74.9198 14.2955C75.2948 15.0284 75.4795 15.9176 75.4738 16.9631V25.2983H72.3886V17.4403C72.3886 16.5653 72.1613 15.8807 71.7068 15.3864C71.2579 14.892 70.6358 14.6449 69.8403 14.6449C69.3005 14.6449 68.8204 14.7642 68.4 15.0028C67.9852 15.2358 67.6585 15.5739 67.4198 16.017C67.1869 16.4602 67.0704 16.9972 67.0704 17.6278ZM78.1302 25.2983V12.2074H81.2154V25.2983H78.1302ZM79.6813 10.3494C79.1927 10.3494 78.7722 10.1875 78.42 9.86364C78.0677 9.53409 77.8916 9.13921 77.8916 8.67898C77.8916 8.21307 78.0677 7.81819 78.42 7.49432C78.7722 7.16477 79.1927 7 79.6813 7C80.1756 7 80.5961 7.16477 80.9427 7.49432C81.295 7.81819 81.4711 8.21307 81.4711 8.67898C81.4711 9.13921 81.295 9.53409 80.9427 9.86364C80.5961 10.1875 80.1756 10.3494 79.6813 10.3494ZM90.5387 12.2074V14.5937H82.8V12.2074H90.5387ZM84.7347 25.2983V10.9716C84.7347 10.0909 84.9165 9.35796 85.2802 8.77273C85.6495 8.1875 86.1438 7.75 86.7631 7.46023C87.3824 7.17045 88.0699 7.02557 88.8256 7.02557C89.3597 7.02557 89.8341 7.06818 90.2489 7.15341C90.6637 7.23864 90.9705 7.31535 91.1694 7.38353L90.5557 9.76989C90.425 9.73012 90.2603 9.69034 90.0614 9.65057C89.8625 9.60512 89.641 9.58239 89.3966 9.58239C88.8228 9.58239 88.4165 9.7216 88.1779 10C87.9449 10.2727 87.8285 10.6648 87.8285 11.1761V25.2983H84.7347ZM92.4749 25.2983V12.2074H95.5601V25.2983H92.4749ZM94.026 10.3494C93.5374 10.3494 93.1169 10.1875 92.7647 9.86364C92.4124 9.53409 92.2362 9.13921 92.2362 8.67898C92.2362 8.21307 92.4124 7.81819 92.7647 7.49432C93.1169 7.16477 93.5374 7 94.026 7C94.5203 7 94.9408 7.16477 95.2874 7.49432C95.6397 7.81819 95.8158 8.21307 95.8158 8.67898C95.8158 9.13921 95.6397 9.53409 95.2874 9.86364C94.9408 10.1875 94.5203 10.3494 94.026 10.3494ZM104.048 25.554C102.736 25.554 101.602 25.2813 100.648 24.7358C99.6987 24.1847 98.9686 23.4063 98.4572 22.4006C97.9459 21.3892 97.6902 20.1989 97.6902 18.8295C97.6902 17.483 97.9459 16.3011 98.4572 15.2841C98.9743 14.2614 99.6959 13.4659 100.622 12.8977C101.548 12.3239 102.636 12.0369 103.886 12.0369C104.693 12.0369 105.454 12.1676 106.17 12.429C106.892 12.6847 107.528 13.0824 108.079 13.6222C108.636 14.1619 109.074 14.8494 109.392 15.6847C109.71 16.5142 109.869 17.5028 109.869 18.6506V19.5966H99.1391V17.5171H106.912C106.906 16.9261 106.778 16.4006 106.528 15.9403C106.278 15.4744 105.929 15.108 105.48 14.8409C105.037 14.5739 104.52 14.4403 103.929 14.4403C103.298 14.4403 102.744 14.5937 102.267 14.9006C101.79 15.2017 101.418 15.5994 101.15 16.0937C100.889 16.5824 100.756 17.1193 100.75 17.7045V19.5199C100.75 20.2813 100.889 20.9347 101.168 21.4801C101.446 22.0199 101.835 22.4347 102.335 22.7244C102.835 23.0085 103.42 23.1506 104.091 23.1506C104.54 23.1506 104.946 23.0881 105.31 22.9631C105.673 22.8324 105.989 22.6421 106.256 22.3921C106.523 22.1421 106.724 21.8324 106.861 21.4631L109.741 21.7869C109.56 22.5483 109.213 23.2131 108.702 23.7813C108.196 24.3438 107.548 24.7813 106.758 25.0938C105.969 25.4006 105.065 25.554 104.048 25.554ZM116.857 25.5284C115.829 25.5284 114.908 25.2642 114.096 24.7358C113.283 24.2074 112.641 23.4403 112.17 22.4347C111.698 21.429 111.462 20.2074 111.462 18.7699C111.462 17.3153 111.701 16.0881 112.178 15.0881C112.661 14.0824 113.312 13.3239 114.13 12.8125C114.948 12.2955 115.86 12.0369 116.866 12.0369C117.633 12.0369 118.264 12.1676 118.758 12.429C119.252 12.6847 119.644 12.9943 119.934 13.358C120.224 13.7159 120.448 14.054 120.607 14.3722H120.735V7.84375H123.829V25.2983H120.795V23.2358H120.607C120.448 23.554 120.218 23.892 119.917 24.25C119.616 24.6023 119.218 24.9034 118.724 25.1534C118.229 25.4034 117.607 25.5284 116.857 25.5284ZM117.718 22.9972C118.371 22.9972 118.928 22.821 119.389 22.4688C119.849 22.1108 120.198 21.6136 120.437 20.9773C120.675 20.3409 120.795 19.5994 120.795 18.7528C120.795 17.9063 120.675 17.1705 120.437 16.5455C120.204 15.9205 119.857 15.4347 119.397 15.0881C118.942 14.7415 118.383 14.5682 117.718 14.5682C117.031 14.5682 116.457 14.7472 115.996 15.1051C115.536 15.4631 115.19 15.9574 114.957 16.5881C114.724 17.2188 114.607 17.9403 114.607 18.7528C114.607 19.571 114.724 20.3011 114.957 20.9432C115.195 21.5795 115.545 22.0824 116.005 22.4517C116.471 22.8153 117.042 22.9972 117.718 22.9972Z" fill="#2B2C58"/>
<mask id="mask0_1_2" style="mask-type:luminance" maskUnits="userSpaceOnUse" x="0" y="0" width="32" height="33">
<path d="M30 0H2C0.895431 0 0 0.895431 0 2V31C0 32.1046 0.895431 33 2 33H30C31.1046 33 32 32.1046 32 31V2C32 0.895431 31.1046 0 30 0Z" fill="white"/>
</mask>
<g mask="url(#mask0_1_2)">
<path d="M0.284447 33C0.127351 33 8.56811e-09 32.8727 2.54949e-08 32.7156C1.16678e-07 31.8694 5.33982e-07 28.6072 2.44379e-06 16.4725C4.42585e-06 3.87879 1.94882e-06 1.49785 6.72381e-07 0.851403C2.2539e-07 0.625027 0.0899277 0.410073 0.25 0.25V0.25C0.410072 0.089928 0.627177 3.42727e-07 0.853554 3.42727e-07H16C24.0001 1.71342e-07 28.0001 8.56606e-08 30.0001 4.2825e-08C31.1046 1.91679e-08 32 0.892117 32 1.99666C32 4.03524 32 8.15522 32 16.4817C32 29.0476 32 31.8741 32 32.7254C32 32.8776 31.8766 33 31.7244 33V33H16.0089H0.284447V33ZM12.8622 27.2158C13.5911 26.8492 14.1867 25.8958 14.5778 24.4567C14.8356 23.485 14.8267 23.3017 14.4711 23.2467C14.2311 23.2192 12.6133 23.1 10.7289 22.9808C10.4889 22.9625 10.4622 23.0083 10.08 24.0075C9.86667 24.585 9.64444 25.2358 9.59111 25.4558C9.43111 26.235 9.90222 26.7758 11.1022 27.1975C11.84 27.4542 12.3644 27.4633 12.8622 27.2158ZM20.7733 27.0508C21.4756 26.7117 21.7511 26.4733 21.92 26.0608C22.0622 25.7308 22.0089 25.4925 21.4311 23.925C21.0756 22.9625 21.0756 22.9625 20.7822 22.9717C20.3644 22.99 17.7422 23.1825 17.1733 23.2467L16.9893 23.2682C16.8341 23.2863 16.7267 23.4322 16.7556 23.5858V23.5858C17.0578 25.135 17.4044 25.9967 17.9644 26.6383C18.7378 27.4908 19.5822 27.6192 20.7733 27.0508ZM7.52 25.4833C7.76 25.3183 7.83111 25.2083 7.92 24.7683C7.97333 24.4842 8.15111 23.8517 8.31111 23.3567L8.37429 23.1672C8.50233 22.783 8.30077 22.3669 7.92 22.2292V22.2292C7.23556 21.9817 6.18667 21.4317 6.08889 21.2667C5.99111 21.1017 5.89333 21.175 5.84 21.4408C5.80444 21.5875 5.61778 22.1375 5.42222 22.66C5.21778 23.1733 4.99556 23.7783 4.93333 23.9983C4.81778 24.3833 4.81778 24.4017 5.09333 24.7225C5.43111 25.1167 6.49778 25.6667 6.92444 25.6667C7.08444 25.6667 7.36 25.5842 7.52 25.4833ZM25.3422 25.4192C26.0089 25.1625 26.6667 24.6308 26.6667 24.3467C26.6667 24.255 26.4267 23.5583 26.1333 22.7792C25.84 22 25.6 21.3217 25.6 21.2667C25.6 21.2025 25.4844 21.2392 25.3156 21.3492C24.8178 21.6883 23.8844 22.1467 23.4311 22.2842C23.1911 22.3575 22.9867 22.4583 22.96 22.5133C22.9422 22.5683 23.04 22.935 23.1822 23.3383C23.3244 23.7325 23.4933 24.31 23.5556 24.6125C23.7778 25.6758 24.1867 25.8592 25.3422 25.4192ZM17.8044 21.3583C20.4622 21.1842 22.4711 20.7442 23.6356 20.0567C24.3467 19.635 25.2 18.7275 25.4756 18.095C25.8756 17.1508 25.9733 16.5092 25.9822 14.575C25.9911 12.8058 25.9467 12.3842 25.6267 11.3208C24.9156 8.92833 23.0756 7.1225 20.4711 6.2425C18.7911 5.68333 16.4978 5.43583 14.5067 5.59167C9.68889 5.98583 6.73778 8.06667 5.76 11.7425C5.57333 12.4392 5.55556 12.7142 5.55556 14.5292C5.55556 16.7108 5.63556 17.2242 6.08889 18.205C6.37333 18.81 7.24444 19.6992 7.91111 20.0658C9.88444 21.1567 13.5111 21.6242 17.8044 21.3583Z" fill="#2B2C58"/>
<path d="M14.0889 18.7092C13.5111 18.535 13.0222 18.3058 12.7822 18.0767C12.6578 17.9758 12.6222 17.7925 12.6222 17.325C12.6222 16.9767 12.6667 16.6742 12.7289 16.61C12.8978 16.4358 13.8222 16.4725 14.2044 16.665C15.1644 17.16 16.2222 17.1692 17.2 16.6925C17.9022 16.3533 18.3644 16.3258 18.7022 16.6008C18.9067 16.7658 18.9333 16.8575 18.9333 17.3342C18.9333 17.7467 18.8889 17.9208 18.7556 18.0583C18.5067 18.315 17.9822 18.5717 17.36 18.7367C16.6044 18.9383 14.8 18.9292 14.0889 18.7092Z" fill="#2B2C58"/>
<path d="M14.5778 14.7492C13.7244 14.355 13.3244 13.6583 13.2622 12.4942L13.2359 12.0439C13.2261 11.8754 13.3601 11.7333 13.5289 11.7333V11.7333C13.7244 11.7333 13.9022 11.7975 14 11.9167C14.24 12.1917 14.6133 12.155 14.88 11.8158C15.0044 11.66 15.1111 11.44 15.1111 11.33C15.1111 11.0642 14.8 10.6425 14.5244 10.5417C14.3556 10.4683 14.3111 10.3858 14.3111 10.1383C14.3111 9.845 14.3378 9.8175 14.7289 9.68C14.96 9.5975 15.4311 9.53333 15.8222 9.53333C16.3733 9.53333 16.5867 9.57917 16.96 9.77167C17.92 10.2575 18.3644 11.1742 18.2933 12.4575C18.2311 13.5667 17.7956 14.3275 16.9689 14.7583C16.48 15.0242 15.1378 15.015 14.5778 14.7492Z" fill="#2B2C58"/>
<path d="M11.2178 27.5917C10.4089 27.3717 9.73332 26.9958 9.48444 26.6383C9.32444 26.4092 9.28888 26.235 9.29777 25.7125C9.30666 25.1717 9.37777 24.8783 9.76888 23.8333C10.0267 23.155 10.2489 22.5867 10.2578 22.5775C10.2667 22.5683 10.6489 22.6142 11.12 22.6875C11.5822 22.7517 12.5067 22.8342 13.1644 22.8617C13.8133 22.8983 14.5333 22.9442 14.7378 22.9717V22.9717C14.9537 22.997 15.108 23.1927 15.0823 23.4085L15.0667 23.54C14.9956 24.2642 14.7111 25.2908 14.4089 25.9692C13.7422 27.4633 12.6844 28.0042 11.2178 27.5917Z" fill="white"/>
<path d="M18.6756 27.5917C17.7867 27.28 17.0311 26.2167 16.6756 24.75C16.4978 24.0258 16.3822 22.8708 16.4978 22.935C16.5956 22.9992 19.8133 22.77 20.6222 22.6508C21.0578 22.5775 21.2267 22.5867 21.2978 22.6692C21.4222 22.8158 22.1867 24.9792 22.2667 25.4192C22.3556 25.8958 22.2578 26.345 21.9822 26.6842C21.6889 27.0417 20.6489 27.5642 20.0978 27.6375C19.8756 27.665 19.5644 27.7017 19.4133 27.72C19.2622 27.7383 18.9333 27.6833 18.6756 27.5917Z" fill="white"/>
<path d="M6.56891 25.9417C6.00891 25.8408 5.14669 25.3733 4.8178 24.9792C4.39113 24.4842 4.40002 24.4475 5.28891 21.9542C5.47558 21.45 5.66224 20.9275 5.70669 20.79V20.79C5.74963 20.666 5.90337 20.6233 6.00411 20.7074L6.16891 20.845C6.72891 21.3125 7.28891 21.615 8.19558 21.9542C8.53472 22.0766 8.77322 22.1842 8.89965 22.2675C8.99041 22.3273 8.98928 22.4373 8.9555 22.5406C8.90233 22.7033 8.81276 22.9662 8.71113 23.2375C8.56002 23.6408 8.35558 24.3283 8.24891 24.7775C8.08002 25.4742 8.02669 25.6025 7.78669 25.7492C7.43113 25.9692 7.07558 26.0242 6.56891 25.9417Z" fill="white"/>
<path d="M23.8667 25.8592C23.5733 25.7308 23.4133 25.465 23.2889 24.8875C23.2267 24.585 23.0222 23.8975 22.8267 23.3567C22.64 22.8067 22.4978 22.33 22.5244 22.2842C22.56 22.2383 22.8089 22.1283 23.0933 22.0367C23.7689 21.8258 24.6756 21.3583 25.1822 20.955C25.4133 20.7717 25.6356 20.625 25.6889 20.625C25.7333 20.625 25.8133 20.79 25.8667 21.0008C25.92 21.2025 26.1867 21.945 26.4533 22.6417C27.0667 24.255 27.0844 24.6217 26.5867 25.1167C25.9644 25.7217 24.5067 26.125 23.8667 25.8592Z" fill="white"/>
<path d="M13.2444 21.6333C10.7289 21.4683 8.94224 21.0558 7.64446 20.3408C6.9778 19.9742 6.10668 19.085 5.82224 18.48C5.35113 17.4808 5.28891 17.0042 5.28891 14.5292C5.28891 12.4208 5.30668 12.1733 5.49335 11.4675C6.48002 7.74583 9.43113 5.70167 14.3733 5.31667C16.5689 5.1425 19.0044 5.39 20.7378 5.9675C23.3422 6.8475 25.1822 8.65333 25.8933 11.0458C26.2222 12.155 26.2578 12.5125 26.2489 14.575C26.24 16.8025 26.16 17.3892 25.7422 18.37C25.4667 19.0025 24.6133 19.91 23.9022 20.3317C22.9244 20.9 21.2444 21.34 19.2444 21.5508C18.0444 21.6792 14.6044 21.725 13.2444 21.6333ZM17.1644 18.4433C18.5422 18.0492 19.0578 17.3617 18.3822 16.8392V16.8392C18.2347 16.7265 18.0367 16.705 17.8685 16.7834L17.4933 16.9583C16.9244 17.2333 16.7289 17.2792 15.9733 17.3067C15.0667 17.3525 14.5422 17.2517 13.9378 16.94C13.5556 16.7475 13.1467 16.7292 12.9956 16.885C12.8356 17.05 12.8622 17.6367 13.0489 17.8017C13.8311 18.5167 15.8222 18.8283 17.1644 18.4433ZM16.7022 14.4833C18.48 13.5575 18.4533 10.9358 16.6667 10.0283C16.2578 9.82667 16.0889 9.79 15.6622 9.82667C15.3867 9.85417 15.0133 9.93667 14.8444 10.01L14.7582 10.0507C14.6729 10.0909 14.6767 10.2135 14.7644 10.2483V10.2483C15.5022 10.5508 15.6622 11.6142 15.0578 12.2008C14.7289 12.5125 14.0622 12.5125 13.7244 12.1917V12.1917C13.6423 12.1133 13.507 12.1797 13.5188 12.2926L13.5378 12.4758C13.5911 13.0442 13.9111 13.7775 14.24 14.0892C14.8267 14.6575 16.0178 14.85 16.7022 14.4833Z" fill="white"/>
</g>
</g>
<defs>
<clipPath id="clip0_1_2">
<rect width="124" height="33" fill="white"/>
</clipPath>
</defs>
</svg>
